/* XPM */
static char * dscope_mini_xpm[] = {
"16 16 132 2",
"  	c None",
". 	c #5B5B5B",
"+ 	c #DADADA",
"@ 	c #B8B8B8",
"# 	c #848484",
"$ 	c #8F8F8F",
"% 	c #909090",
"& 	c #8A8A8A",
"* 	c #646466",
"= 	c #1C1B19",
"- 	c #0C0C0A",
"; 	c #B1B1B1",
"> 	c #1C1D1D",
", 	c #1C1B1B",
"' 	c #1E1F1D",
") 	c #141414",
"! 	c #1C1D1B",
"~ 	c #2B2A2A",
"{ 	c #0E0E0F",
"] 	c #060605",
"^ 	c #080806",
"/ 	c #4E4E4E",
"( 	c #0B0B0B",
"_ 	c #1E1D19",
": 	c #272623",
"< 	c #282623",
"[ 	c #211D1B",
"} 	c #3B362B",
"| 	c #4A4133",
"1 	c #3D352A",
"2 	c #252119",
"3 	c #C0BDB8",
"4 	c #1B1915",
"5 	c #222222",
"6 	c #24221A",
"7 	c #413E34",
"8 	c #989591",
"9 	c #474136",
"0 	c #4E4535",
"a 	c #4E4533",
"b 	c #3A3226",
"c 	c #464030",
"d 	c #B8B8B7",
"e 	c #151311",
"f 	c #171717",
"g 	c #030303",
"h 	c #2A271E",
"i 	c #A9A6A0",
"j 	c #60594B",
"k 	c #A39E98",
"l 	c #564E3E",
"m 	c #433B2F",
"n 	c #2A2A2A",
"o 	c #050505",
"p 	c #A19F9B",
"q 	c #5C5445",
"r 	c #5B5343",
"s 	c #5F5849",
"t 	c #9E9A94",
"u 	c #474035",
"v 	c #393939",
"w 	c #070707",
"x 	c #B5B3B0",
"y 	c #544B3A",
"z 	c #4E4534",
"A 	c #554D3F",
"B 	c #939087",
"C 	c #5D594B",
"D 	c #413B2D",
"E 	c #494030",
"F 	c #474031",
"G 	c #585040",
"H 	c #4B4333",
"I 	c #514836",
"J 	c #4D4432",
"K 	c #423B2D",
"L 	c #5D5748",
"M 	c #838775",
"N 	c #4F493C",
"O 	c #4C4433",
"P 	c #544C3B",
"Q 	c #C4C1BE",
"R 	c #D3D1CF",
"S 	c #191714",
"T 	c #353535",
"U 	c #070606",
"V 	c #2C271E",
"W 	c #524F3C",
"X 	c #919083",
"Y 	c #5C5748",
"Z 	c #5F5748",
"` 	c #645D4E",
" .	c #BFBCB8",
"..	c #2B2B2B",
"+.	c #4D4534",
"@.	c #3F382C",
"#.	c #B0ADA8",
"$.	c #5E5646",
"%.	c #AFACA6",
"&.	c #645F57",
"*.	c #453B2D",
"=.	c #504735",
"-.	c #4B4235",
";.	c #ABA8A2",
">.	c #554C3E",
",.	c #423B2F",
"'.	c #A49D95",
").	c #1F1C18",
"!.	c #3A3227",
"~.	c #3F372C",
"{.	c #5F5950",
"].	c #393125",
"^.	c #383228",
"/.	c #322D22",
"(.	c #9C9A93",
"_.	c #252422",
":.	c #67635D",
"<.	c #5B5A55",
"[.	c #6F6862",
"}.	c #62605D",
"|.	c #817F75",
"1.	c #737269",
"2.	c #939593",
"3.	c #040403",
"4.	c #1C1C16",
"5.	c #161511",
"6.	c #151412",
"7.	c #090807",
"8.	c #151514",
"9.	c #1E1C1A",
"0.	c #0C0B09",
"a.	c #121110",
". . . . . . . . . . . . . . . . ",
". + @ # $ % & % # $ % # * = - . ",
". ; > , ' ) ! ) ~ ' ) ~ { ] ^ . ",
". / ( _ : < [ } | 1 2 1 2 3 4 . ",
". 5 ( 6 7 8 9 0 a a b c b d e . ",
". f g h i j k l m a a 1 2 3 4 . ",
". n o p q r s t u 2 a 1 2 d e . ",
". v w x y z A B C D E F G 3 4 . ",
". 5 o H I J K L M N O P Q R S . ",
". T U a a a V W X Y Z `  .d e . ",
". ..o } a a | +.@.#.$.%.&.3 4 . ",
". n o *.=.a =.c b -.;.>.,.'.).. ",
". v w !.~.{.].^./.!.~.^./.(._.. ",
". ..o :.<.[.:.}.|.[.:.}.1.2.3.. ",
". 4.5.6.7.5.6.8.4.5.6.8.9.0.a.. ",
". . . . . . . . . . . . . . . . "};
